<svg width="28" height="36" viewBox="0 0 28 36" fill="none" xmlns="http://www.w3.org/2000/svg">
<path d="M15.6561 5.7236L17.4393 0.373938C17.6055 -0.124646 18.3107 -0.124646 18.4769 0.373938L20.2602 5.7236C20.5323 6.5401 21.173 7.18081 21.9895 7.45297L27.3392 9.23619C27.8378 9.40239 27.8378 10.1076 27.3392 10.2738L21.9895 12.057C21.173 12.3292 20.5323 12.9699 20.2602 13.7864L18.4769 19.1361C18.3107 19.6347 17.6055 19.6347 17.4393 19.1361L15.6561 13.7864C15.3839 12.9699 14.7432 12.3292 13.9267 12.057L8.57706 10.2738C8.07848 10.1076 8.07848 9.40239 8.57706 9.23619L13.9267 7.45297C14.7432 7.18081 15.3839 6.5401 15.6561 5.7236Z" fill="url(#paint0_linear_1272_674)"/>
<path d="M5.40219 25.5478L6.50182 22.2489C6.66801 21.7504 7.37325 21.7504 7.53944 22.2489L8.63907 25.5478C8.91123 26.3643 9.55194 27.005 10.3684 27.2772L13.6673 28.3768C14.1659 28.543 14.1659 29.2482 13.6673 29.4144L10.3684 30.5141C9.55194 30.7862 8.91123 31.4269 8.63907 32.2434L7.53944 35.5423C7.37325 36.0409 6.66801 36.0409 6.50182 35.5423L5.40219 32.2434C5.13003 31.4269 4.48932 30.7862 3.67282 30.5141L0.373938 29.4144C-0.124645 29.2482 -0.124647 28.543 0.373937 28.3768L3.67282 27.2772C4.48932 27.005 5.13002 26.3643 5.40219 25.5478Z" fill="url(#paint1_linear_1272_674)"/>
<defs>
<linearGradient id="paint0_linear_1272_674" x1="3.03818" y1="3.20915" x2="18.9741" y2="33.1967" gradientUnits="userSpaceOnUse">
<stop offset="0.16" stop-color="#FFE500"/>
<stop offset="1" stop-color="#FFC700"/>
</linearGradient>
<linearGradient id="paint1_linear_1272_674" x1="-1.51875" y1="19.9127" x2="6.70291" y2="39.9634" gradientUnits="userSpaceOnUse">
<stop offset="0.16" stop-color="#FFE500"/>
<stop offset="1" stop-color="#FFC700"/>
</linearGradient>
</defs>
</svg>
