<svg width="56" height="56" viewBox="0 0 56 56" fill="none" xmlns="http://www.w3.org/2000/svg">
<path fill-rule="evenodd" clip-rule="evenodd" d="M28 38C33.5228 38 38 33.5228 38 28C38 22.4772 33.5228 18 28 18C22.4772 18 18 22.4772 18 28C18 33.5228 22.4772 38 28 38ZM29 22C29 21.4477 28.5523 21 28 21C27.4477 21 27 21.4477 27 22V24C27 24.5523 27.4477 25 28 25C28.5523 25 29 24.5523 29 24V22Z" fill="white" fill-opacity="0.93"/>
<path d="M28.0001 8C28.5523 8 29.0001 8.44772 29.0001 9V11C29.0001 11.5523 28.5523 12 28.0001 12C27.4478 12 27.0001 11.5523 27.0001 11V9C27.0001 8.44772 27.4478 8 28.0001 8Z" fill="white" fill-opacity="0.93"/>
<path d="M29.0001 45C29.0001 44.4477 28.5523 44 28.0001 44C27.4478 44 27.0001 44.4477 27.0001 45V47C27.0001 47.5523 27.4478 48 28.0001 48C28.5523 48 29.0001 47.5523 29.0001 47V45Z" fill="white" fill-opacity="0.93"/>
<path d="M45.3206 18C45.5967 18.4783 45.4328 19.0899 44.9545 19.366L43.2225 20.366C42.7442 20.6422 42.1326 20.4783 41.8565 20C41.5803 19.5217 41.7442 18.9101 42.2225 18.634L43.9545 17.634C44.4328 17.3578 45.0444 17.5217 45.3206 18Z" fill="white" fill-opacity="0.93"/>
<path d="M13.7776 37.366C14.2559 37.0899 14.4198 36.4783 14.1437 36C13.8675 35.5217 13.2559 35.3578 12.7776 35.634L11.0456 36.634C10.5673 36.9101 10.4034 37.5217 10.6796 38C10.9557 38.4783 11.5673 38.6422 12.0456 38.366L13.7776 37.366Z" fill="white" fill-opacity="0.93"/>
<path d="M10.6796 18C10.9557 17.5217 11.5673 17.3578 12.0456 17.634L13.7776 18.634C14.2559 18.9101 14.4198 19.5217 14.1437 20C13.8675 20.4783 13.2559 20.6422 12.7776 20.366L11.0456 19.366C10.5673 19.0899 10.4034 18.4783 10.6796 18Z" fill="white" fill-opacity="0.93"/>
<path d="M43.2225 35.634C42.7442 35.3578 42.1326 35.5217 41.8565 36C41.5803 36.4783 41.7442 37.0899 42.2225 37.366L43.9545 38.366C44.4328 38.6422 45.0444 38.4783 45.3206 38C45.5967 37.5217 45.4328 36.9101 44.9545 36.634L43.2225 35.634Z" fill="white" fill-opacity="0.93"/>
</svg>
