<svg width="56" height="56" viewBox="0 0 56 56" fill="none" xmlns="http://www.w3.org/2000/svg">
<path d="M28.0001 8C28.5524 8 29.0001 8.44772 29.0001 9V11C29.0001 11.5523 28.5524 12 28.0001 12C27.4478 12 27.0001 11.5523 27.0001 11V9C27.0001 8.44772 27.4478 8 28.0001 8Z" fill="white" fill-opacity="0.3"/>
<path d="M13.7777 37.366C14.256 37.0899 14.4199 36.4783 14.1438 36C13.8676 35.5217 13.256 35.3578 12.7777 35.634L11.0457 36.634C10.5674 36.9101 10.4035 37.5217 10.6796 38C10.9558 38.4783 11.5674 38.6422 12.0457 38.366L13.7777 37.366Z" fill="white" fill-opacity="0.3"/>
<path d="M10.6796 18C10.9557 17.5217 11.5673 17.3578 12.0456 17.634L13.7776 18.634C14.2559 18.9101 14.4198 19.5217 14.1437 20C13.8675 20.4783 13.2559 20.6422 12.7776 20.366L11.0456 19.366C10.5673 19.0899 10.4034 18.4783 10.6796 18Z" fill="white" fill-opacity="0.3"/>
<path d="M29 44.9999C29 44.4476 28.5523 43.9999 28 43.9999C27.4477 43.9999 27 44.4476 27 44.9999V46.9999C27 47.5522 27.4477 47.9999 28 47.9999C28.5523 47.9999 29 47.5522 29 46.9999V44.9999Z" fill="white" fill-opacity="0.93"/>
<path d="M45.3206 17.9999C45.5967 18.4782 45.4328 19.0898 44.9545 19.3659L43.2225 20.3659C42.7442 20.6421 42.1326 20.4782 41.8565 19.9999C41.5803 19.5216 41.7442 18.91 42.2225 18.6339L43.9545 17.6339C44.4328 17.3578 45.0444 17.5216 45.3206 17.9999Z" fill="white" fill-opacity="0.93"/>
<path d="M43.2224 35.6339C42.7441 35.3578 42.1325 35.5216 41.8564 35.9999C41.5802 36.4782 41.7441 37.0898 42.2224 37.366L43.9544 38.366C44.4327 38.6421 45.0443 38.4782 45.3205 37.9999C45.5966 37.5216 45.4327 36.91 44.9544 36.6339L43.2224 35.6339Z" fill="white" fill-opacity="0.93"/>
<path fill-rule="evenodd" clip-rule="evenodd" d="M28 37.9999C33.5228 37.9999 38 33.5228 38 27.9999C38 22.4771 33.5228 17.9999 28 17.9999C22.4772 17.9999 18 22.4771 18 27.9999C18 33.5228 22.4772 37.9999 28 37.9999ZM29 31.9999C29 31.4477 28.5523 30.9999 28 30.9999C27.4477 30.9999 27 31.4477 27 31.9999V33.9999C27 34.5522 27.4477 34.9999 28 34.9999C28.5523 34.9999 29 34.5522 29 33.9999V31.9999Z" fill="white" fill-opacity="0.93"/>
</svg>
