<svg width="56" height="56" viewBox="0 0 56 56" fill="none" xmlns="http://www.w3.org/2000/svg">
<path d="M44 10.3333C44 11.3689 43.3284 12 42.5 12C41.6716 12 41 11.3689 41 10.3333C41 8.875 42.5 7 42.5 7C42.5 7 44 8.875 44 10.3333Z" fill="white" fill-opacity="0.3"/>
<path d="M11.5 18C12.3284 18 13 17.3689 13 16.3333C13 14.875 11.5 13 11.5 13C11.5 13 10 14.875 10 16.3333C10 17.3689 10.6716 18 11.5 18Z" fill="white" fill-opacity="0.3"/>
<path d="M46.5 55C47.3284 55 48 54.3689 48 53.3333C48 51.875 46.5 50 46.5 50C46.5 50 45 51.875 45 53.3333C45 54.3689 45.6716 55 46.5 55Z" fill="white" fill-opacity="0.3"/>
<path d="M29 40C32.866 40 36 36.6421 36 32.5C36 27.5 29 20 29 20C29 20 22 27.5 22 32.5C22 36.6421 25.134 40 29 40Z" fill="white" fill-opacity="0.3"/>
<path d="M52.5986 19.2577V15.5011C52.5986 14.9988 51.9409 14.8101 51.6746 15.2361L48.0768 20.9927C47.8686 21.3258 48.108 21.7577 48.5008 21.7577H50.0986C50.3748 21.7577 50.5986 21.9816 50.5986 22.2577V26.0143C50.5986 26.5167 51.2564 26.7053 51.5226 26.2793L55.1205 20.5227C55.3286 20.1897 55.0892 19.7577 54.6965 19.7577H53.0986C52.8225 19.7577 52.5986 19.5339 52.5986 19.2577Z" fill="white" fill-opacity="0.93"/>
<path d="M8.97807 44.9784V41.2218C8.97807 40.7195 8.32031 40.5308 8.05407 40.9568L4.45619 46.7134C4.24805 47.0465 4.48748 47.4784 4.88019 47.4784H6.47807C6.75421 47.4784 6.97807 47.7023 6.97807 47.9784V51.735C6.97807 52.2374 7.63583 52.426 7.90207 52L11.4999 46.2434C11.7081 45.9104 11.4687 45.4784 11.0759 45.4784H9.47807C9.20193 45.4784 8.97807 45.2546 8.97807 44.9784Z" fill="white" fill-opacity="0.93"/>
</svg>
