<svg width="56" height="56" viewBox="0 0 56 56" fill="none" xmlns="http://www.w3.org/2000/svg">
<path d="M48 53.3333C48 54.3689 47.3284 55 46.5 55C45.6716 55 45 54.3689 45 53.3333C45 51.875 46.5 50 46.5 50C46.5 50 48 51.875 48 53.3333Z" fill="white" fill-opacity="0.3"/>
<path d="M18 15.3333C18 16.3689 17.3284 17 16.5 17C15.6716 17 15 16.3689 15 15.3333C15 13.875 16.5 12 16.5 12C16.5 12 18 13.875 18 15.3333Z" fill="white" fill-opacity="0.3"/>
<path d="M44 10.3333C44 11.3689 43.3284 12 42.5 12C41.6716 12 41 11.3689 41 10.3333C41 8.875 42.5 7 42.5 7C42.5 7 44 8.875 44 10.3333Z" fill="white" fill-opacity="0.3"/>
<path d="M10 44C10 45.6569 8.65685 47 7 47C5.34315 47 4 45.6569 4 44C4 41.5 7 38 7 38C7 38 10 41.5 10 44Z" fill="white" fill-opacity="0.3"/>
<path d="M36 32.5C36 36.6421 32.866 40 29 40C25.134 40 22 36.6421 22 32.5C22 27.5 29 20 29 20C29 20 36 27.5 36 32.5Z" fill="white" fill-opacity="0.93"/>
</svg>
