<svg width="74" height="76" viewBox="0 0 74 76" fill="none" xmlns="http://www.w3.org/2000/svg">
<path d="M73.6184 53.8059C74.9897 50.9071 72.1097 48.046 68.9126 48.2942C68.0631 48.3601 67.2045 48.3937 66.3381 48.3937C48.2163 48.3937 33.5256 33.703 33.5256 15.5812C33.5256 12.2128 34.0332 8.96297 34.976 5.90399C35.9211 2.83733 33.7629 -0.606894 30.6307 0.0911286C13.511 3.90637 0.713135 19.1866 0.713135 37.456C0.713135 58.5982 17.8522 75.7373 38.9944 75.7373C54.2875 75.7373 67.486 66.7696 73.6184 53.8059Z" fill="url(#paint0_linear_1272_678)"/>
<path fill-rule="evenodd" clip-rule="evenodd" d="M69.0033 49.4625C68.1237 49.5308 67.2348 49.5655 66.3381 49.5655C47.5691 49.5655 32.3538 34.3502 32.3538 15.5812C32.3538 12.0945 32.8792 8.72837 33.8561 5.55883C34.2213 4.37373 33.9793 3.12185 33.3734 2.25947C32.7883 1.42662 31.918 1.00486 30.8856 1.23494C14.2902 4.93334 1.88501 19.7474 1.88501 37.456C1.88501 57.9509 18.4994 74.5654 38.9944 74.5654C53.8176 74.5654 66.6132 65.8743 72.5591 53.3048C73.011 52.3494 72.792 51.4092 72.1102 50.6567C71.4042 49.8774 70.2384 49.3667 69.0033 49.4625ZM68.9126 48.2942C72.1097 48.046 74.9897 50.9071 73.6184 53.8059C67.4861 66.7696 54.2875 75.7372 38.9944 75.7372C17.8522 75.7372 0.713135 58.5982 0.713135 37.456C0.713135 19.1866 13.511 3.90637 30.6307 0.0911286C33.7629 -0.606894 35.9211 2.83733 34.976 5.90399C34.0332 8.96297 33.5256 12.2128 33.5256 15.5812C33.5256 33.703 48.2163 48.3937 66.3381 48.3937C67.2045 48.3937 68.0631 48.3601 68.9126 48.2942Z" fill="white" fill-opacity="0.3"/>
<defs>
<linearGradient id="paint0_linear_1272_678" x1="8.97748" y1="6.02947" x2="38.0613" y2="75.8804" gradientUnits="userSpaceOnUse">
<stop offset="0.16" stop-color="#FFE500"/>
<stop offset="1" stop-color="#FFC700"/>
</linearGradient>
</defs>
</svg>
